<svg width="100vw" viewBox="0 0 1926 801" fill="none" xmlns="http://www.w3.org/2000/svg">
<g id="bgBlobs">
<path id="background" d="M1924 9H7V801H1924V9Z" fill="#7AD9FF"/>
<g id="blobs">
<g id="blob1">
<path id="Vector" d="M1112.78 150.277C1016.88 170.697 1019.32 222.255 966.814 220.734C864.275 217.769 925.445 80.5213 814.895 105.437C694.351 132.596 757.907 215.624 695.5 250.682C617.758 294.351 586.422 282.912 574.072 338.556C561.713 394.2 573.69 544.097 740.403 490.344C766.016 482.084 836.217 488.403 853.662 533.106C881.513 604.47 982.717 650.499 1022.65 567.901C1047.86 515.767 1137.55 562.216 1204.13 563.064C1270.71 563.912 1229.02 470.733 1288.11 451.064C1347.2 431.394 1418.33 430.36 1451.27 350.414C1487.83 261.692 1392.9 232.573 1309.09 281.41C1225.05 330.384 1186.39 241.193 1188.99 225.395C1195.29 187.207 1246.14 121.879 1112.77 150.286L1112.78 150.277Z" fill="#99E7FF"/>
<path id="Vector_2" d="M900.892 131.348C906.157 131.348 910.425 127.109 910.425 121.879C910.425 116.649 906.157 112.41 900.892 112.41C895.628 112.41 891.36 116.649 891.36 121.879C891.36 127.109 895.628 131.348 900.892 131.348Z" fill="#99E7FF"/>
<path id="Vector_3" d="M726.993 165.509C730.479 165.509 733.305 162.701 733.305 159.238C733.305 155.775 730.479 152.968 726.993 152.968C723.507 152.968 720.68 155.775 720.68 159.238C720.68 162.701 723.507 165.509 726.993 165.509Z" fill="#99E7FF"/>
<path id="Vector_4" d="M735.062 153.456C736.662 153.456 737.959 152.168 737.959 150.579C737.959 148.99 736.662 147.702 735.062 147.702C733.463 147.702 732.166 148.99 732.166 150.579C732.166 152.168 733.463 153.456 735.062 153.456Z" fill="#99E7FF"/>
<path id="Vector_5" d="M562.165 331.154C566.247 331.154 569.557 327.867 569.557 323.811C569.557 319.756 566.247 316.468 562.165 316.468C558.082 316.468 554.772 319.756 554.772 323.811C554.772 327.867 558.082 331.154 562.165 331.154Z" fill="#99E7FF"/>
<path id="Vector_6" d="M569.507 452.936C573.59 452.936 576.9 449.648 576.9 445.593C576.9 441.537 573.59 438.25 569.507 438.25C565.425 438.25 562.115 441.537 562.115 445.593C562.115 449.648 565.425 452.936 569.507 452.936Z" fill="#99E7FF"/>
<path id="Vector_7" d="M571.569 435.763C574.031 435.763 576.026 433.781 576.026 431.335C576.026 428.89 574.031 426.908 571.569 426.908C569.108 426.908 567.112 428.89 567.112 431.335C567.112 433.781 569.108 435.763 571.569 435.763Z" fill="#99E7FF"/>
<path id="Vector_8" d="M558.228 314.605C560.266 314.605 561.919 312.964 561.919 310.939C561.919 308.914 560.266 307.272 558.228 307.272C556.189 307.272 554.536 308.914 554.536 310.939C554.536 312.964 556.189 314.605 558.228 314.605Z" fill="#99E7FF"/>
<path id="Vector_9" d="M568.928 338.088C570.858 338.088 572.423 336.534 572.423 334.616C572.423 332.699 570.858 331.145 568.928 331.145C566.998 331.145 565.433 332.699 565.433 334.616C565.433 336.534 566.998 338.088 568.928 338.088Z" fill="#99E7FF"/>
<path id="Vector_10" d="M1073.86 158.605C1076.1 158.605 1077.92 156.797 1077.92 154.567C1077.92 152.338 1076.1 150.53 1073.86 150.53C1071.61 150.53 1069.79 152.338 1069.79 154.567C1069.79 156.797 1071.61 158.605 1073.86 158.605Z" fill="#99E7FF"/>
<path id="Vector_11" d="M1085.58 152.919C1089.81 152.919 1093.24 149.514 1093.24 145.313C1093.24 141.112 1089.81 137.706 1085.58 137.706C1081.35 137.706 1077.92 141.112 1077.92 145.313C1077.92 149.514 1081.35 152.919 1085.58 152.919Z" fill="#99E7FF"/>
<path id="Vector_12" d="M1230.92 282.424C1235.15 282.424 1238.58 279.019 1238.58 274.818C1238.58 270.617 1235.15 267.211 1230.92 267.211C1226.69 267.211 1223.27 270.617 1223.27 274.818C1223.27 279.019 1226.69 282.424 1230.92 282.424Z" fill="#99E7FF"/>
<path id="Vector_13" d="M1462.76 290.04C1466.99 290.04 1470.42 286.635 1470.42 282.434C1470.42 278.233 1466.99 274.828 1462.76 274.828C1458.53 274.828 1455.1 278.233 1455.1 282.434C1455.1 286.635 1458.53 290.04 1462.76 290.04Z" fill="#99E7FF"/>
<path id="Vector_14" d="M1038.53 571.324C1042.76 571.324 1046.18 567.918 1046.18 563.717C1046.18 559.516 1042.76 556.111 1038.53 556.111C1034.3 556.111 1030.87 559.516 1030.87 563.717C1030.87 567.918 1034.3 571.324 1038.53 571.324Z" fill="#99E7FF"/>
<path id="Vector_15" d="M773.948 509.068C778.177 509.068 781.605 505.662 781.605 501.461C781.605 497.26 778.177 493.855 773.948 493.855C769.719 493.855 766.291 497.26 766.291 501.461C766.291 505.662 769.719 509.068 773.948 509.068Z" fill="#99E7FF"/>
<path id="Vector_16" d="M788.605 501.461C791.093 501.461 793.111 499.457 793.111 496.985C793.111 494.513 791.093 492.509 788.605 492.509C786.116 492.509 784.099 494.513 784.099 496.985C784.099 499.457 786.116 501.461 788.605 501.461Z" fill="#99E7FF"/>
<path id="Vector_17" d="M1048.24 557.691C1050.51 557.691 1052.36 555.857 1052.36 553.595C1052.36 551.333 1050.51 549.499 1048.24 549.499C1045.96 549.499 1044.11 551.333 1044.11 553.595C1044.11 555.857 1045.96 557.691 1048.24 557.691Z" fill="#99E7FF"/>
<path id="Vector_18" d="M1465.2 301.138C1467.75 301.138 1469.81 299.086 1469.81 296.555C1469.81 294.023 1467.75 291.971 1465.2 291.971C1462.65 291.971 1460.58 294.023 1460.58 296.555C1460.58 299.086 1462.65 301.138 1465.2 301.138Z" fill="#99E7FF"/>
<path id="Vector_19" d="M1463.94 309.769C1465.29 309.769 1466.38 308.681 1466.38 307.34C1466.38 305.999 1465.29 304.912 1463.94 304.912C1462.59 304.912 1461.5 305.999 1461.5 307.34C1461.5 308.681 1462.59 309.769 1463.94 309.769Z" fill="#99E7FF"/>
<path id="Vector_20" d="M1252.27 290.274C1254.89 290.274 1257.02 288.166 1257.02 285.564C1257.02 282.963 1254.89 280.854 1252.27 280.854C1249.66 280.854 1247.53 282.963 1247.53 285.564C1247.53 288.166 1249.66 290.274 1252.27 290.274Z" fill="#99E7FF"/>
<path id="Vector_21" d="M1240.08 290.06C1242.58 290.06 1244.61 288.047 1244.61 285.564C1244.61 283.081 1242.58 281.069 1240.08 281.069C1237.58 281.069 1235.56 283.081 1235.56 285.564C1235.56 288.047 1237.58 290.06 1240.08 290.06Z" fill="#99E7FF"/>
<path id="Vector_22" d="M916.492 139.169C918.666 139.169 920.428 137.418 920.428 135.259C920.428 133.099 918.666 131.348 916.492 131.348C914.317 131.348 912.555 133.099 912.555 135.259C912.555 137.418 914.317 139.169 916.492 139.169Z" fill="#99E7FF"/>
<path id="Vector_23" d="M920.428 127.038C923.822 127.038 926.574 124.305 926.574 120.933C926.574 117.562 923.822 114.828 920.428 114.828C917.034 114.828 914.283 117.562 914.283 120.933C914.283 124.305 917.034 127.038 920.428 127.038Z" fill="#99E7FF"/>
</g>
<g id="blob2">
<path id="Vector_24" d="M6.96027 645.087C6.96027 645.087 49.9983 638.982 119.67 673.338C189.342 707.694 162.885 735.165 225.292 738.227C287.699 741.279 361.474 712.784 426.021 737.213C490.568 761.641 503.576 801 503.576 801H6.96027V645.097V645.087Z" fill="#99E7FF"/>
<path id="Vector_25" d="M29.8439 637.676C36.979 637.676 42.7632 631.93 42.7632 624.842C42.7632 617.754 36.979 612.009 29.8439 612.009C22.7088 612.009 16.9247 617.754 16.9247 624.842C16.9247 631.93 22.7088 637.676 29.8439 637.676Z" fill="#99E7FF"/>
<path id="Vector_26" d="M193.2 720.781C200.677 720.781 206.738 714.76 206.738 707.333C206.738 699.906 200.677 693.885 193.2 693.885C185.723 693.885 179.662 699.906 179.662 707.333C179.662 714.76 185.723 720.781 193.2 720.781Z" fill="#99E7FF"/>
<path id="Vector_27" d="M507.444 783.895C514.921 783.895 520.982 777.874 520.982 770.447C520.982 763.02 514.921 757 507.444 757C499.967 757 493.906 763.02 493.906 770.447C493.906 777.874 499.967 783.895 507.444 783.895Z" fill="#99E7FF"/>
<path id="Vector_28" d="M532.87 782.637C536.606 782.637 539.634 779.629 539.634 775.918C539.634 772.207 536.606 769.199 532.87 769.199C529.135 769.199 526.106 772.207 526.106 775.918C526.106 779.629 529.135 782.637 532.87 782.637Z" fill="#99E7FF"/>
<path id="Vector_29" d="M485.464 763.631C490.132 763.631 493.916 759.872 493.916 755.234C493.916 750.597 490.132 746.838 485.464 746.838C480.795 746.838 477.011 750.597 477.011 755.234C477.011 759.872 480.795 763.631 485.464 763.631Z" fill="#99E7FF"/>
<path id="Vector_30" d="M249.491 732.181C254.766 732.181 259.043 727.933 259.043 722.692C259.043 717.452 254.766 713.204 249.491 713.204C244.215 713.204 239.939 717.452 239.939 722.692C239.939 727.933 244.215 732.181 249.491 732.181Z" fill="#99E7FF"/>
<path id="Vector_31" d="M229.17 711.8C238.175 711.8 245.476 704.547 245.476 695.602C245.476 686.656 238.175 679.404 229.17 679.404C220.164 679.404 212.863 686.656 212.863 695.602C212.863 704.547 220.164 711.8 229.17 711.8Z" fill="#99E7FF"/>
<path id="Vector_32" d="M206.737 729.119C208.521 729.119 209.967 727.682 209.967 725.911C209.967 724.139 208.521 722.702 206.737 722.702C204.954 722.702 203.508 724.139 203.508 725.911C203.508 727.682 204.954 729.119 206.737 729.119Z" fill="#99E7FF"/>
<path id="Vector_33" d="M223.81 731.84C227.833 731.84 231.094 728.6 231.094 724.604C231.094 720.607 227.833 717.368 223.81 717.368C219.787 717.368 216.525 720.607 216.525 724.604C216.525 728.6 219.787 731.84 223.81 731.84Z" fill="#99E7FF"/>
<path id="Vector_34" d="M50.2732 642.464C53.3907 642.464 55.918 639.953 55.918 636.856C55.918 633.759 53.3907 631.249 50.2732 631.249C47.1556 631.249 44.6284 633.759 44.6284 636.856C44.6284 639.953 47.1556 642.464 50.2732 642.464Z" fill="#99E7FF"/>
</g>
<g id="blob3">
<path id="Vector_35" d="M7.4217 410.145C7.4217 410.145 19.8992 423.193 53.0612 379.465C86.2233 335.738 65.5289 232.065 69.7404 196.764C73.9519 161.462 110.363 156.469 135.711 156.527C161.059 156.586 206.512 141.344 220.442 123.839C246.605 90.9655 237.651 20.6837 374.197 56.9412C510.743 93.1987 589.652 40.7921 589.456 10.3174H0L7.4217 410.135V410.145Z" fill="#99E7FF"/>
<path id="Vector_36" d="M22.5106 457.529C33.2295 457.529 41.9189 448.897 41.9189 438.25C41.9189 427.602 33.2295 418.97 22.5106 418.97C11.7916 418.97 3.10223 427.602 3.10223 438.25C3.10223 448.897 11.7916 457.529 22.5106 457.529Z" fill="#99E7FF"/>
<path id="Vector_37" d="M99.869 207.647C108.164 207.647 114.889 200.967 114.889 192.726C114.889 184.486 108.164 177.806 99.869 177.806C91.5736 177.806 84.8489 184.486 84.8489 192.726C84.8489 200.967 91.5736 207.647 99.869 207.647Z" fill="#99E7FF"/>
<path id="Vector_38" d="M276.517 78.3954C282.346 78.3954 287.071 73.7019 287.071 67.9121C287.071 62.1224 282.346 57.4288 276.517 57.4288C270.689 57.4288 265.964 62.1224 265.964 67.9121C265.964 73.7019 270.689 78.3954 276.517 78.3954Z" fill="#99E7FF"/>
<path id="Vector_39" d="M325.151 83.5444C333.463 83.5444 340.201 76.8512 340.201 68.5948C340.201 60.3383 333.463 53.6451 325.151 53.6451C316.839 53.6451 310.101 60.3383 310.101 68.5948C310.101 76.8512 316.839 83.5444 325.151 83.5444Z" fill="#99E7FF"/>
<path id="Vector_40" d="M607.244 36.5013C615.556 36.5013 622.294 29.8081 622.294 21.5516C622.294 13.2952 615.556 6.60199 607.244 6.60199C598.933 6.60199 592.195 13.2952 592.195 21.5516C592.195 29.8081 598.933 36.5013 607.244 36.5013Z" fill="#99E7FF"/>
<path id="Vector_41" d="M587.865 45.1903C591.558 45.1903 594.551 42.217 594.551 38.5492C594.551 34.8815 591.558 31.9082 587.865 31.9082C584.173 31.9082 581.18 34.8815 581.18 38.5492C581.18 42.217 584.173 45.1903 587.865 45.1903Z" fill="#99E7FF"/>
<path id="Vector_42" d="M636.136 29.8993C642.311 29.8993 647.318 24.9263 647.318 18.7919C647.318 12.6575 642.311 7.68451 636.136 7.68451C629.96 7.68451 624.954 12.6575 624.954 18.7919C624.954 24.9263 629.96 29.8993 636.136 29.8993Z" fill="#99E7FF"/>
<path id="Vector_43" d="M295.602 79.6534C298.02 79.6534 299.98 77.7061 299.98 75.3041C299.98 72.902 298.02 70.9547 295.602 70.9547C293.183 70.9547 291.223 72.902 291.223 75.3041C291.223 77.7061 293.183 79.6534 295.602 79.6534Z" fill="#99E7FF"/>
<path id="Vector_44" d="M302.238 66.8102C305.898 66.8102 308.864 63.8631 308.864 60.2277C308.864 56.5922 305.898 53.6451 302.238 53.6451C298.578 53.6451 295.611 56.5922 295.611 60.2277C295.611 63.8631 298.578 66.8102 302.238 66.8102Z" fill="#99E7FF"/>
<path id="Vector_45" d="M120.671 178.557C123.279 178.557 125.393 176.457 125.393 173.866C125.393 171.276 123.279 169.176 120.671 169.176C118.064 169.176 115.949 171.276 115.949 173.866C115.949 176.457 118.064 178.557 120.671 178.557Z" fill="#99E7FF"/>
<path id="Vector_46" d="M88.7953 233.489C94.293 233.489 98.7498 229.062 98.7498 223.601C98.7498 218.14 94.293 213.713 88.7953 213.713C83.2976 213.713 78.8408 218.14 78.8408 223.601C78.8408 229.062 83.2976 233.489 88.7953 233.489Z" fill="#99E7FF"/>
<path id="Vector_47" d="M64.0171 397.643C67.8828 397.643 71.0166 394.53 71.0166 390.69C71.0166 386.85 67.8828 383.737 64.0171 383.737C60.1513 383.737 57.0175 386.85 57.0175 390.69C57.0175 394.53 60.1513 397.643 64.0171 397.643Z" fill="#99E7FF"/>
<path id="Vector_48" d="M46.7881 418.678C52.4376 418.678 57.0175 414.128 57.0175 408.516C57.0175 402.904 52.4376 398.355 46.7881 398.355C41.1386 398.355 36.5587 402.904 36.5587 408.516C36.5587 414.128 41.1386 418.678 46.7881 418.678Z" fill="#99E7FF"/>
</g>
<g id="blob4">
<path id="Vector_49" d="M1378.66 10.3273C1378.66 10.3273 1389.92 87.3574 1455.1 103.243C1520.29 119.129 1602.67 97.9967 1654.5 101.303C1706.32 104.608 1751.51 108.655 1787.56 171.146C1832.97 249.892 1921.58 253.881 1921.58 253.881V10.3273H1378.67H1378.66Z" fill="#99E7FF"/>
<path id="Vector_50" d="M1352.69 39.6316C1363.71 39.6316 1372.64 30.7598 1372.64 19.8158C1372.64 8.87185 1363.71 0 1352.69 0C1341.68 0 1332.74 8.87185 1332.74 19.8158C1332.74 30.7598 1341.68 39.6316 1352.69 39.6316Z" fill="#99E7FF"/>
<path id="Vector_51" d="M1643.12 145.683C1653.4 145.683 1661.73 137.405 1661.73 127.194C1661.73 116.982 1653.4 108.704 1643.12 108.704C1632.84 108.704 1624.51 116.982 1624.51 127.194C1624.51 137.405 1632.84 145.683 1643.12 145.683Z" fill="#99E7FF"/>
<path id="Vector_52" d="M1907.39 296.506C1917.67 296.506 1926 288.228 1926 278.016C1926 267.805 1917.67 259.527 1907.39 259.527C1897.11 259.527 1888.77 267.805 1888.77 278.016C1888.77 288.228 1897.11 296.506 1907.39 296.506Z" fill="#99E7FF"/>
<path id="Vector_53" d="M1872.26 290.704C1878.31 290.704 1883.21 285.835 1883.21 279.83C1883.21 273.825 1878.31 268.957 1872.26 268.957C1866.22 268.957 1861.32 273.825 1861.32 279.83C1861.32 285.835 1866.22 290.704 1872.26 290.704Z" fill="#99E7FF"/>
<path id="Vector_54" d="M1881.71 264.783C1884.63 264.783 1887 262.43 1887 259.527C1887 256.624 1884.63 254.271 1881.71 254.271C1878.78 254.271 1876.41 256.624 1876.41 259.527C1876.41 262.43 1878.78 264.783 1881.71 264.783Z" fill="#99E7FF"/>
<path id="Vector_55" d="M1703.16 140.632C1709.95 140.632 1715.44 135.17 1715.44 128.432C1715.44 121.695 1709.95 116.233 1703.16 116.233C1696.38 116.233 1690.88 121.695 1690.88 128.432C1690.88 135.17 1696.38 140.632 1703.16 140.632Z" fill="#99E7FF"/>
<path id="Vector_56" d="M1728.27 138.213C1731.67 138.213 1734.42 135.48 1734.42 132.109C1734.42 128.737 1731.67 126.004 1728.27 126.004C1724.88 126.004 1722.13 128.737 1722.13 132.109C1722.13 135.48 1724.88 138.213 1728.27 138.213Z" fill="#99E7FF"/>
<path id="Vector_57" d="M1676.82 125.555C1680.85 125.555 1684.12 122.311 1684.12 118.31C1684.12 114.308 1680.85 111.064 1676.82 111.064C1672.79 111.064 1669.53 114.308 1669.53 118.31C1669.53 122.311 1672.79 125.555 1676.82 125.555Z" fill="#99E7FF"/>
<path id="Vector_58" d="M1372.64 55.3517C1377.35 55.3517 1381.17 51.5576 1381.17 46.8773C1381.17 42.1971 1377.35 38.403 1372.64 38.403C1367.93 38.403 1364.11 42.1971 1364.11 46.8773C1364.11 51.5576 1367.93 55.3517 1372.64 55.3517Z" fill="#99E7FF"/>
</g>
<g id="blob5">
<path id="Vector_59" d="M1921.57 482.387V800.99L1429.7 795.929C1429.7 795.929 1460.33 711.78 1543.5 715.183C1626.67 718.587 1626.85 769.053 1669.17 747.316C1721.21 720.576 1677.14 656.029 1758.17 621.214C1792.13 606.626 1829.27 619.703 1843.85 595.577C1860.14 568.622 1852.46 504.406 1865.71 489.457C1885.71 466.901 1921.56 463.341 1921.56 463.341V482.377L1921.57 482.387Z" fill="#99E7FF"/>
<path id="Vector_60" d="M1908.26 454.75C1915.54 454.75 1921.43 448.89 1921.43 441.663C1921.43 434.435 1915.54 428.576 1908.26 428.576C1900.98 428.576 1895.09 434.435 1895.09 441.663C1895.09 448.89 1900.98 454.75 1908.26 454.75Z" fill="#99E7FF"/>
<path id="Vector_61" d="M1825.51 595.733C1831.97 595.733 1837.2 590.533 1837.2 584.118C1837.2 577.704 1831.97 572.504 1825.51 572.504C1819.06 572.504 1813.82 577.704 1813.82 584.118C1813.82 590.533 1819.06 595.733 1825.51 595.733Z" fill="#99E7FF"/>
<path id="Vector_62" d="M1820.03 605.836C1821.92 605.836 1823.44 604.321 1823.44 602.452C1823.44 600.583 1821.92 599.068 1820.03 599.068C1818.15 599.068 1816.63 600.583 1816.63 602.452C1816.63 604.321 1818.15 605.836 1820.03 605.836Z" fill="#99E7FF"/>
<path id="Vector_63" d="M1839.89 570.241C1842.87 570.241 1845.28 567.844 1845.28 564.887C1845.28 561.931 1842.87 559.534 1839.89 559.534C1836.92 559.534 1834.5 561.931 1834.5 564.887C1834.5 567.844 1836.92 570.241 1839.89 570.241Z" fill="#99E7FF"/>
<path id="Vector_64" d="M1801.54 608.917C1806.62 608.917 1810.74 604.826 1810.74 599.78C1810.74 594.733 1806.62 590.642 1801.54 590.642C1796.46 590.642 1792.34 594.733 1792.34 599.78C1792.34 604.826 1796.46 608.917 1801.54 608.917Z" fill="#99E7FF"/>
<path id="Vector_65" d="M1644.55 747.374C1649.63 747.374 1653.75 743.283 1653.75 738.237C1653.75 733.19 1649.63 729.099 1644.55 729.099C1639.47 729.099 1635.36 733.19 1635.36 738.237C1635.36 743.283 1639.47 747.374 1644.55 747.374Z" fill="#99E7FF"/>
<path id="Vector_66" d="M1426.32 783.934C1431.4 783.934 1435.52 779.843 1435.52 774.797C1435.52 769.75 1431.4 765.659 1426.32 765.659C1421.24 765.659 1417.12 769.75 1417.12 774.797C1417.12 779.843 1421.24 783.934 1426.32 783.934Z" fill="#99E7FF"/>
<path id="Vector_67" d="M1440.12 765.649C1443.95 765.649 1447.05 762.571 1447.05 758.774C1447.05 754.977 1443.95 751.899 1440.12 751.899C1436.3 751.899 1433.2 754.977 1433.2 758.774C1433.2 762.571 1436.3 765.649 1440.12 765.649Z" fill="#99E7FF"/>
<path id="Vector_68" d="M1428.62 763.367C1429.89 763.367 1430.92 762.346 1430.92 761.086C1430.92 759.825 1429.89 758.804 1428.62 758.804C1427.35 758.804 1426.32 759.825 1426.32 761.086C1426.32 762.346 1427.35 763.367 1428.62 763.367Z" fill="#99E7FF"/>
<path id="Vector_69" d="M1412.85 789.932C1415.4 789.932 1417.46 787.884 1417.46 785.358C1417.46 782.832 1415.4 780.784 1412.85 780.784C1410.31 780.784 1408.25 782.832 1408.25 785.358C1408.25 787.884 1410.31 789.932 1412.85 789.932Z" fill="#99E7FF"/>
<path id="Vector_70" d="M1676.39 732.444C1683.11 732.444 1688.55 727.035 1688.55 720.362C1688.55 713.689 1683.11 708.279 1676.39 708.279C1669.67 708.279 1664.23 713.689 1664.23 720.362C1664.23 727.035 1669.67 732.444 1676.39 732.444Z" fill="#99E7FF"/>
<path id="Vector_71" d="M1661.16 748.408C1664.44 748.408 1667.09 745.767 1667.09 742.508C1667.09 739.25 1664.44 736.608 1661.16 736.608C1657.87 736.608 1655.22 739.25 1655.22 742.508C1655.22 745.767 1657.87 748.408 1661.16 748.408Z" fill="#99E7FF"/>
<path id="Vector_72" d="M1672.86 742.508C1674.81 742.508 1676.39 740.936 1676.39 738.998C1676.39 737.059 1674.81 735.487 1672.86 735.487C1670.91 735.487 1669.32 737.059 1669.32 738.998C1669.32 740.936 1670.91 742.508 1672.86 742.508Z" fill="#99E7FF"/>
<path id="Vector_73" d="M1885.78 467.515C1890.95 467.515 1895.14 463.35 1895.14 458.212C1895.14 453.074 1890.95 448.908 1885.78 448.908C1880.61 448.908 1876.41 453.074 1876.41 458.212C1876.41 463.35 1880.61 467.515 1885.78 467.515Z" fill="#99E7FF"/>
<path id="Vector_74" d="M1888.21 443.096C1890.3 443.096 1891.98 441.42 1891.98 439.351C1891.98 437.283 1890.3 435.607 1888.21 435.607C1886.13 435.607 1884.44 437.283 1884.44 439.351C1884.44 441.42 1886.13 443.096 1888.21 443.096Z" fill="#99E7FF"/>
</g>
</g>
</g>
</svg>
