<svg width="601" height="144" viewBox="0 0 601 144" fill="none" xmlns="http://www.w3.org/2000/svg">
<g id="CGTV">
<path id="Vector" d="M544.02 10.41H27.84C18.3794 10.41 10.71 18.0793 10.71 27.54V120.63C10.71 130.091 18.3794 137.76 27.84 137.76H544.02C553.481 137.76 561.15 130.091 561.15 120.63V27.54C561.15 18.0793 553.481 10.41 544.02 10.41Z" fill="#F2694C"/>
<path id="Vector_2" opacity="0.38" d="M539.79 13.9H32.07C22.6094 13.9 14.94 21.5694 14.94 31.03V112.76C14.94 122.221 22.6094 129.89 32.07 129.89H539.79C549.251 129.89 556.92 122.221 556.92 112.76V31.03C556.92 21.5694 549.251 13.9 539.79 13.9Z" stroke="black" stroke-width="10" stroke-miterlimit="10"/>
<g id="Group" opacity="0.51">
<path id="CINEGANGTV" d="M82.4232 61.47H74.6309C74.1701 59.2287 73.3636 57.2597 72.2115 55.563C71.0804 53.8663 69.6979 52.4419 68.064 51.2898C66.4511 50.1168 64.6601 49.237 62.6911 48.6505C60.7221 48.064 58.6693 47.7707 56.5327 47.7707C52.6366 47.7707 49.107 48.7552 45.944 50.7242C42.802 52.6932 40.2988 55.5944 38.4345 59.4277C36.5912 63.261 35.6695 67.9636 35.6695 73.5355C35.6695 79.1074 36.5912 83.81 38.4345 87.6433C40.2988 91.4766 42.802 94.3777 45.944 96.3467C49.107 98.3157 52.6366 99.3002 56.5327 99.3002C58.6693 99.3002 60.7221 99.007 62.6911 98.4205C64.6601 97.834 66.4511 96.9647 68.064 95.8126C69.6979 94.6395 71.0804 93.2047 72.2115 91.508C73.3636 89.7903 74.1701 87.8213 74.6309 85.6009H82.4232C81.8366 88.8896 80.7684 91.8327 79.2183 94.4301C77.6682 97.0275 75.7411 99.2374 73.4369 101.06C71.1327 102.861 68.5458 104.233 65.6761 105.176C62.8273 106.118 59.7795 106.59 56.5327 106.59C51.0446 106.59 46.164 105.249 41.8908 102.568C37.6176 99.8868 34.2556 96.0744 31.8048 91.1309C29.354 86.1874 28.1286 80.3223 28.1286 73.5355C28.1286 66.7487 29.354 60.8835 31.8048 55.94C34.2556 50.9965 37.6176 47.1842 41.8908 44.503C46.164 41.8218 51.0446 40.4812 56.5327 40.4812C59.7795 40.4812 62.8273 40.9525 65.6761 41.8951C68.5458 42.8377 71.1327 44.2202 73.4369 46.0426C75.7411 47.844 77.6682 50.0434 79.2183 52.6409C80.7684 55.2173 81.8366 58.1604 82.4232 61.47ZM102.807 41.3609V105.71H95.0149V41.3609H102.807ZM169.458 41.3609V105.71H161.917L126.852 55.1859H126.223V105.71H118.431V41.3609H125.972L161.163 92.0107H161.791V41.3609H169.458ZM185.05 105.71V41.3609H223.886V48.2734H192.842V70.0164H221.875V76.9289H192.842V98.7975H224.389V105.71H185.05ZM281.919 61.47C281.228 59.3544 280.317 57.4587 279.186 55.7829C278.076 54.0862 276.746 52.6409 275.196 51.4469C273.666 50.2529 271.928 49.3417 269.98 48.7133C268.032 48.0849 265.895 47.7707 263.57 47.7707C259.758 47.7707 256.291 48.7552 253.17 50.7242C250.049 52.6932 247.566 55.5944 245.723 59.4277C243.88 63.261 242.958 67.9636 242.958 73.5355C242.958 79.1074 243.89 83.81 245.755 87.6433C247.619 91.4766 250.143 94.3777 253.327 96.3467C256.511 98.3157 260.093 99.3002 264.073 99.3002C267.759 99.3002 271.006 98.5147 273.813 96.9437C276.641 95.3517 278.84 93.1104 280.411 90.2197C282.003 87.3081 282.799 83.8833 282.799 79.9452L285.187 80.448H265.832V73.5355H290.34V80.448C290.34 85.7476 289.209 90.3559 286.947 94.273C284.705 98.1901 281.605 101.227 277.646 103.385C273.708 105.521 269.184 106.59 264.073 106.59C258.375 106.59 253.369 105.249 249.054 102.568C244.76 99.8868 241.408 96.0744 238.999 91.1309C236.611 86.1874 235.417 80.3223 235.417 73.5355C235.417 68.4454 236.098 63.8684 237.46 59.8047C238.842 55.7201 240.79 52.2429 243.304 49.3731C245.817 46.5034 248.792 44.304 252.227 42.7748C255.662 41.2457 259.443 40.4812 263.57 40.4812C266.963 40.4812 270.126 40.9944 273.059 42.0208C276.012 43.0262 278.641 44.4611 280.945 46.3254C283.271 48.1687 285.208 50.3786 286.758 52.9551C288.308 55.5106 289.377 58.3489 289.963 61.47H281.919ZM304.338 105.71H296.169L319.797 41.3609H327.84L351.469 105.71H343.299L324.07 51.5412H323.567L304.338 105.71ZM307.354 80.5737H340.283V87.4862H307.354V80.5737ZM412.519 41.3609V105.71H404.978L369.912 55.1859H369.284V105.71H361.492V41.3609H369.033L404.224 92.0107H404.852V41.3609H412.519ZM472.1 61.47C471.408 59.3544 470.497 57.4587 469.366 55.7829C468.256 54.0862 466.926 52.6409 465.376 51.4469C463.847 50.2529 462.108 49.3417 460.16 48.7133C458.212 48.0849 456.075 47.7707 453.75 47.7707C449.938 47.7707 446.471 48.7552 443.35 50.7242C440.229 52.6932 437.747 55.5944 435.903 59.4277C434.06 63.261 433.138 67.9636 433.138 73.5355C433.138 79.1074 434.07 83.81 435.935 87.6433C437.799 91.4766 440.323 94.3777 443.507 96.3467C446.691 98.3157 450.273 99.3002 454.253 99.3002C457.94 99.3002 461.186 98.5147 463.993 96.9437C466.821 95.3517 469.02 93.1104 470.591 90.2197C472.183 87.3081 472.979 83.8833 472.979 79.9452L475.367 80.448H456.012V73.5355H480.52V80.448C480.52 85.7476 479.389 90.3559 477.127 94.273C474.886 98.1901 471.785 101.227 467.826 103.385C463.888 105.521 459.364 106.59 454.253 106.59C448.555 106.59 443.549 105.249 439.234 102.568C434.94 99.8868 431.588 96.0744 429.179 91.1309C426.791 86.1874 425.597 80.3223 425.597 73.5355C425.597 68.4454 426.278 63.8684 427.64 59.8047C429.022 55.7201 430.97 52.2429 433.484 49.3731C435.998 46.5034 438.972 44.304 442.407 42.7748C445.843 41.2457 449.624 40.4812 453.75 40.4812C457.144 40.4812 460.307 40.9944 463.239 42.0208C466.193 43.0262 468.821 44.4611 471.126 46.3254C473.451 48.1687 475.388 50.3786 476.938 52.9551C478.488 55.5106 479.557 58.3489 480.143 61.47H472.1ZM487.669 48.2734V41.3609H535.93V48.2734H515.696V105.71H507.903V48.2734H487.669ZM550.596 41.3609L569.699 95.5298H570.454L589.557 41.3609H597.727L574.098 105.71H566.055L542.427 41.3609H550.596Z" fill="black"/>
</g>
<g id="CINEGANGTV_2">
<path d="M82.4232 52.5H74.6309C74.1701 50.2587 73.3636 48.2896 72.2115 46.5929C71.0804 44.8962 69.6979 43.4718 68.064 42.3198C66.4511 41.1467 64.6601 40.267 62.6911 39.6804C60.7221 39.0939 58.6693 38.8007 56.5327 38.8007C52.6366 38.8007 49.107 39.7852 45.944 41.7542C42.802 43.7232 40.2988 46.6244 38.4345 50.4577C36.5912 54.291 35.6695 58.9935 35.6695 64.5654C35.6695 70.1373 36.5912 74.8399 38.4345 78.6732C40.2988 82.5065 42.802 85.4077 45.944 87.3767C49.107 89.3457 52.6366 90.3302 56.5327 90.3302C58.6693 90.3302 60.7221 90.037 62.6911 89.4504C64.6601 88.8639 66.4511 87.9946 68.064 86.8425C69.6979 85.6695 71.0804 84.2346 72.2115 82.5379C73.3636 80.8203 74.1701 78.8513 74.6309 76.6309H82.4232C81.8366 79.9196 80.7684 82.8626 79.2183 85.46C77.6682 88.0575 75.7411 90.2674 73.4369 92.0898C71.1327 93.8912 68.5458 95.2632 65.6761 96.2058C62.8273 97.1485 59.7795 97.6198 56.5327 97.6198C51.0446 97.6198 46.164 96.2792 41.8908 93.5979C37.6176 90.9167 34.2556 87.1044 31.8048 82.1609C29.354 77.2174 28.1286 71.3523 28.1286 64.5654C28.1286 57.7786 29.354 51.9135 31.8048 46.97C34.2556 42.0265 37.6176 38.2142 41.8908 35.5329C46.164 32.8517 51.0446 31.5111 56.5327 31.5111C59.7795 31.5111 62.8273 31.9824 65.6761 32.925C68.5458 33.8677 71.1327 35.2502 73.4369 37.0725C75.7411 38.874 77.6682 41.0734 79.2183 43.6708C80.7684 46.2473 81.8366 49.1904 82.4232 52.5ZM102.807 32.3909V96.74H95.0149V32.3909H102.807ZM169.458 32.3909V96.74H161.917L126.852 46.2159H126.223V96.74H118.431V32.3909H125.972L161.163 83.0407H161.791V32.3909H169.458ZM185.05 96.74V32.3909H223.886V39.3034H192.842V61.0464H221.875V67.9589H192.842V89.8275H224.389V96.74H185.05ZM281.919 52.5C281.228 50.3843 280.317 48.4886 279.186 46.8129C278.076 45.1162 276.746 43.6708 275.196 42.4769C273.666 41.2829 271.928 40.3717 269.98 39.7433C268.032 39.1149 265.895 38.8007 263.57 38.8007C259.758 38.8007 256.291 39.7852 253.17 41.7542C250.049 43.7232 247.566 46.6244 245.723 50.4577C243.88 54.291 242.958 58.9935 242.958 64.5654C242.958 70.1373 243.89 74.8399 245.755 78.6732C247.619 82.5065 250.143 85.4077 253.327 87.3767C256.511 89.3457 260.093 90.3302 264.073 90.3302C267.759 90.3302 271.006 89.5447 273.813 87.9737C276.641 86.3817 278.84 84.1404 280.411 81.2497C282.003 78.3381 282.799 74.9132 282.799 70.9752L285.187 71.4779H265.832V64.5654H290.34V71.4779C290.34 76.7775 289.209 81.3859 286.947 85.3029C284.705 89.22 281.605 92.2573 277.646 94.4149C273.708 96.5515 269.184 97.6198 264.073 97.6198C258.375 97.6198 253.369 96.2792 249.054 93.5979C244.76 90.9167 241.408 87.1044 238.999 82.1609C236.611 77.2174 235.417 71.3523 235.417 64.5654C235.417 59.4753 236.098 54.8984 237.46 50.8347C238.842 46.75 240.79 43.2728 243.304 40.4031C245.817 37.5334 248.792 35.3339 252.227 33.8048C255.662 32.2757 259.443 31.5111 263.57 31.5111C266.963 31.5111 270.126 32.0243 273.059 33.0507C276.012 34.0562 278.641 35.491 280.945 37.3553C283.271 39.1987 285.208 41.4086 286.758 43.985C288.308 46.5406 289.377 49.3789 289.963 52.5H281.919ZM304.338 96.74H296.169L319.797 32.3909H327.84L351.469 96.74H343.299L324.07 42.5711H323.567L304.338 96.74ZM307.354 71.6036H340.283V78.5161H307.354V71.6036ZM412.519 32.3909V96.74H404.978L369.912 46.2159H369.284V96.74H361.492V32.3909H369.033L404.224 83.0407H404.852V32.3909H412.519ZM472.1 52.5C471.408 50.3843 470.497 48.4886 469.366 46.8129C468.256 45.1162 466.926 43.6708 465.376 42.4769C463.847 41.2829 462.108 40.3717 460.16 39.7433C458.212 39.1149 456.075 38.8007 453.75 38.8007C449.938 38.8007 446.471 39.7852 443.35 41.7542C440.229 43.7232 437.747 46.6244 435.903 50.4577C434.06 54.291 433.138 58.9935 433.138 64.5654C433.138 70.1373 434.07 74.8399 435.935 78.6732C437.799 82.5065 440.323 85.4077 443.507 87.3767C446.691 89.3457 450.273 90.3302 454.253 90.3302C457.94 90.3302 461.186 89.5447 463.993 87.9737C466.821 86.3817 469.02 84.1404 470.591 81.2497C472.183 78.3381 472.979 74.9132 472.979 70.9752L475.367 71.4779H456.012V64.5654H480.52V71.4779C480.52 76.7775 479.389 81.3859 477.127 85.3029C474.886 89.22 471.785 92.2573 467.826 94.4149C463.888 96.5515 459.364 97.6198 454.253 97.6198C448.555 97.6198 443.549 96.2792 439.234 93.5979C434.94 90.9167 431.588 87.1044 429.179 82.1609C426.791 77.2174 425.597 71.3523 425.597 64.5654C425.597 59.4753 426.278 54.8984 427.64 50.8347C429.022 46.75 430.97 43.2728 433.484 40.4031C435.998 37.5334 438.972 35.3339 442.407 33.8048C445.843 32.2757 449.624 31.5111 453.75 31.5111C457.144 31.5111 460.307 32.0243 463.239 33.0507C466.193 34.0562 468.821 35.491 471.126 37.3553C473.451 39.1987 475.388 41.4086 476.938 43.985C478.488 46.5406 479.557 49.3789 480.143 52.5H472.1ZM487.669 39.3034V32.3909H535.93V39.3034H515.696V96.74H507.903V39.3034H487.669ZM550.596 32.3909L569.699 86.5598H570.454L589.557 32.3909H597.727L574.098 96.74H566.055L542.427 32.3909H550.596Z" fill="white"/>
<path d="M82.4232 52.5V54H84.2124L83.9002 52.2382L82.4232 52.5ZM74.6309 52.5L73.1616 52.8021L73.4079 54H74.6309V52.5ZM72.2115 46.5929L70.9634 47.425L70.9706 47.4356L72.2115 46.5929ZM68.064 42.3198L67.1818 43.5329L67.1906 43.5393L67.1996 43.5456L68.064 42.3198ZM62.6911 39.6804L62.2629 41.118V41.118L62.6911 39.6804ZM45.944 41.7542L45.1513 40.4808L45.1475 40.4831L45.944 41.7542ZM38.4345 50.4577L37.0856 49.8016L37.0827 49.8076L38.4345 50.4577ZM38.4345 78.6732L37.0827 79.3233L37.0856 79.3293L38.4345 78.6732ZM45.944 87.3767L45.1475 88.6477L45.1513 88.6501L45.944 87.3767ZM62.6911 89.4504L62.2629 88.0129L62.6911 89.4504ZM68.064 86.8425L68.9359 88.0631L68.9388 88.061L68.064 86.8425ZM72.2115 82.5379L70.9658 81.7024L70.9634 81.7059L72.2115 82.5379ZM74.6309 76.6309V75.1309H73.4102L73.1622 76.3261L74.6309 76.6309ZM82.4232 76.6309L83.8999 76.8943L84.2143 75.1309H82.4232V76.6309ZM79.2183 85.46L77.9302 84.6914L79.2183 85.46ZM73.4369 92.0898L74.3608 93.2715L74.3674 93.2663L73.4369 92.0898ZM65.6761 96.2058L65.208 94.7807L65.2049 94.7818L65.6761 96.2058ZM41.8908 93.5979L41.0935 94.8685L41.8908 93.5979ZM31.8048 82.1609L33.1487 81.4946L31.8048 82.1609ZM31.8048 46.97L30.4609 46.3037L31.8048 46.97ZM65.6761 32.925L65.2049 34.3491L65.208 34.3501L65.6761 32.925ZM73.4369 37.0725L72.5064 38.2491L72.513 38.2543L73.4369 37.0725ZM79.2183 43.6708L77.9302 44.4395L77.933 44.4441L79.2183 43.6708ZM82.4232 51H74.6309V54H82.4232V51ZM76.1002 52.1979C75.6041 49.7855 74.7277 47.6283 73.4525 45.7503L70.9706 47.4356C71.9995 48.951 72.736 50.7318 73.1616 52.8021L76.1002 52.1979ZM73.4596 45.7609C72.228 43.9135 70.7164 42.3546 68.9284 41.0939L67.1996 43.5456C68.6794 44.5891 69.9327 45.8789 70.9634 47.425L73.4596 45.7609ZM68.9463 41.1067C67.1917 39.8306 65.2463 38.8764 63.1193 38.2429L62.2629 41.118C64.0739 41.6575 65.7105 42.4629 67.1818 43.5329L68.9463 41.1067ZM63.1193 38.2429C61.0059 37.6133 58.8085 37.3007 56.5327 37.3007V40.3007C58.5301 40.3007 60.4383 40.5745 62.2629 41.118L63.1193 38.2429ZM56.5327 37.3007C52.3698 37.3007 48.5633 38.3567 45.1513 40.4808L46.7367 43.0276C49.6507 41.2136 52.9034 40.3007 56.5327 40.3007V37.3007ZM45.1475 40.4831C41.7334 42.6226 39.054 45.7542 37.0856 49.8016L39.7835 51.1137C41.5436 47.4945 43.8705 44.8238 46.7405 43.0252L45.1475 40.4831ZM37.0827 49.8076C35.1165 53.8965 34.1695 58.8354 34.1695 64.5654H37.1695C37.1695 59.1517 38.0659 54.6855 39.7863 51.1077L37.0827 49.8076ZM34.1695 64.5654C34.1695 70.2955 35.1165 75.2344 37.0827 79.3233L39.7863 78.0232C38.0659 74.4454 37.1695 69.9792 37.1695 64.5654H34.1695ZM37.0856 79.3293C39.054 83.3767 41.7334 86.5082 45.1475 88.6477L46.7405 86.1057C43.8705 84.3071 41.5436 81.6364 39.7835 78.0172L37.0856 79.3293ZM45.1513 88.6501C48.5633 90.7742 52.3698 91.8302 56.5327 91.8302V88.8302C52.9034 88.8302 49.6507 87.9173 46.7367 86.1033L45.1513 88.6501ZM56.5327 91.8302C58.8085 91.8302 61.0059 91.5176 63.1193 90.888L62.2629 88.0129C60.4383 88.5564 58.5301 88.8302 56.5327 88.8302V91.8302ZM63.1193 90.888C65.2413 90.2559 67.1832 89.3151 68.9359 88.0631L67.1922 85.6219C65.719 86.6742 64.0789 87.4719 62.2629 88.0129L63.1193 90.888ZM68.9388 88.061C70.7214 86.7812 72.2297 85.2148 73.4596 83.37L70.9634 81.7059C69.931 83.2545 68.6743 84.5578 67.1892 85.6241L68.9388 88.061ZM73.4572 83.3735C74.7272 81.4801 75.6032 79.3274 76.0996 76.9357L73.1622 76.3261C72.7369 78.3752 72 80.1605 70.9658 81.7024L73.4572 83.3735ZM74.6309 78.1309H82.4232V75.1309H74.6309V78.1309ZM80.9465 76.3675C80.3885 79.4964 79.3782 82.265 77.9302 84.6914L80.5063 86.2287C82.1585 83.4602 83.2848 80.3428 83.8999 76.8943L80.9465 76.3675ZM77.9302 84.6914C76.4707 87.137 74.6633 89.2073 72.5064 90.9133L74.3674 93.2663C76.8188 91.3274 78.8657 88.978 80.5063 86.2287L77.9302 84.6914ZM72.513 90.9081C70.35 92.5991 67.9183 93.8905 65.208 94.7808L66.1442 97.6309C69.1733 96.636 71.9155 95.1833 74.3608 93.2715L72.513 90.9081ZM65.2049 94.7818C62.52 95.6701 59.6325 96.1198 56.5327 96.1198V99.1198C59.9265 99.1198 63.1345 98.6268 66.1473 97.6299L65.2049 94.7818ZM56.5327 96.1198C51.3009 96.1198 46.7014 94.8456 42.688 92.3273L41.0935 94.8685C45.6265 97.7128 50.7883 99.1198 56.5327 99.1198V96.1198ZM42.688 92.3273C38.6711 89.8069 35.4885 86.2141 33.1487 81.4946L30.4609 82.8272C33.0227 87.9946 36.5641 92.0265 41.0935 94.8685L42.688 92.3273ZM33.1487 81.4946C30.8215 76.8004 29.6286 71.1733 29.6286 64.5654H26.6286C26.6286 71.5312 27.8865 77.6344 30.4609 82.8272L33.1487 81.4946ZM29.6286 64.5654C29.6286 57.9576 30.8215 52.3305 33.1487 47.6362L30.4609 46.3037C27.8865 51.4965 26.6286 57.5997 26.6286 64.5654H29.6286ZM33.1487 47.6362C35.4885 42.9167 38.6711 39.324 42.688 36.8035L41.0935 34.2623C36.5641 37.1043 33.0227 41.1363 30.4609 46.3037L33.1487 47.6362ZM42.688 36.8035C46.7014 34.2853 51.3009 33.0111 56.5327 33.0111V30.0111C50.7883 30.0111 45.6265 31.4181 41.0935 34.2623L42.688 36.8035ZM56.5327 33.0111C59.6325 33.0111 62.52 33.4608 65.2049 34.3491L66.1473 31.501C63.1345 30.5041 59.9265 30.0111 56.5327 30.0111V33.0111ZM65.208 34.3501C67.915 35.2393 70.3445 36.5392 72.5064 38.249L74.3674 35.896C71.921 33.9612 69.1766 32.496 66.1442 31.5L65.208 34.3501ZM72.513 38.2543C74.6664 39.9378 76.4717 41.9955 77.9302 44.4395L80.5063 42.9022C78.8647 40.1513 76.8158 37.8102 74.3608 35.8908L72.513 38.2543ZM77.933 44.4441C79.3779 46.8458 80.3879 49.6117 80.9462 52.7617L83.9002 52.2382C83.2854 48.769 82.1588 45.6488 80.5036 42.8976L77.933 44.4441ZM102.807 32.3909H104.307V30.8909H102.807V32.3909ZM102.807 96.74V98.24H104.307V96.74H102.807ZM95.0149 96.74H93.5149V98.24H95.0149V96.74ZM95.0149 32.3909V30.8909H93.5149V32.3909H95.0149ZM101.307 32.3909V96.74H104.307V32.3909H101.307ZM102.807 95.24H95.0149V98.24H102.807V95.24ZM96.5149 96.74V32.3909H93.5149V96.74H96.5149ZM95.0149 33.8909H102.807V30.8909H95.0149V33.8909ZM169.458 32.3909H170.958V30.8909H169.458V32.3909ZM169.458 96.74V98.24H170.958V96.74H169.458ZM161.917 96.74L160.685 97.5952L161.132 98.24H161.917V96.74ZM126.852 46.2159L128.084 45.3606L127.636 44.7159H126.852V46.2159ZM126.223 46.2159V44.7159H124.723V46.2159H126.223ZM126.223 96.74V98.24H127.723V96.74H126.223ZM118.431 96.74H116.931V98.24H118.431V96.74ZM118.431 32.3909V30.8909H116.931V32.3909H118.431ZM125.972 32.3909L127.204 31.535L126.756 30.8909H125.972V32.3909ZM161.163 83.0407L159.931 83.8966L160.378 84.5407H161.163V83.0407ZM161.791 83.0407V84.5407H163.291V83.0407H161.791ZM161.791 32.3909V30.8909H160.291V32.3909H161.791ZM167.958 32.3909V96.74H170.958V32.3909H167.958ZM169.458 95.24H161.917V98.24H169.458V95.24ZM163.149 95.8847L128.084 45.3606L125.619 47.0711L160.685 97.5952L163.149 95.8847ZM126.852 44.7159H126.223V47.7159H126.852V44.7159ZM124.723 46.2159V96.74H127.723V46.2159H124.723ZM126.223 95.24H118.431V98.24H126.223V95.24ZM119.931 96.74V32.3909H116.931V96.74H119.931ZM118.431 33.8909H125.972V30.8909H118.431V33.8909ZM124.74 33.2468L159.931 83.8966L162.395 82.1848L127.204 31.535L124.74 33.2468ZM161.163 84.5407H161.791V81.5407H161.163V84.5407ZM163.291 83.0407V32.3909H160.291V83.0407H163.291ZM161.791 33.8909H169.458V30.8909H161.791V33.8909ZM185.05 96.74H183.55V98.24H185.05V96.74ZM185.05 32.3909V30.8909H183.55V32.3909H185.05ZM223.886 32.3909H225.386V30.8909H223.886V32.3909ZM223.886 39.3034V40.8034H225.386V39.3034H223.886ZM192.842 39.3034V37.8034H191.342V39.3034H192.842ZM192.842 61.0464H191.342V62.5464H192.842V61.0464ZM221.875 61.0464H223.375V59.5464H221.875V61.0464ZM221.875 67.9589V69.4589H223.375V67.9589H221.875ZM192.842 67.9589V66.4589H191.342V67.9589H192.842ZM192.842 89.8275H191.342V91.3275H192.842V89.8275ZM224.389 89.8275H225.889V88.3275H224.389V89.8275ZM224.389 96.74V98.24H225.889V96.74H224.389ZM186.55 96.74V32.3909H183.55V96.74H186.55ZM185.05 33.8909H223.886V30.8909H185.05V33.8909ZM222.386 32.3909V39.3034H225.386V32.3909H222.386ZM223.886 37.8034H192.842V40.8034H223.886V37.8034ZM191.342 39.3034V61.0464H194.342V39.3034H191.342ZM192.842 62.5464H221.875V59.5464H192.842V62.5464ZM220.375 61.0464V67.9589H223.375V61.0464H220.375ZM221.875 66.4589H192.842V69.4589H221.875V66.4589ZM191.342 67.9589V89.8275H194.342V67.9589H191.342ZM192.842 91.3275H224.389V88.3275H192.842V91.3275ZM222.889 89.8275V96.74H225.889V89.8275H222.889ZM224.389 95.24H185.05V98.24H224.389V95.24ZM281.919 52.5L280.494 52.9659L280.832 54H281.919V52.5ZM279.186 46.8129L277.931 47.6342L277.937 47.6432L277.943 47.6521L279.186 46.8129ZM275.196 42.4769L274.272 43.6592L274.28 43.6652L275.196 42.4769ZM269.98 39.7433L270.44 38.3157L269.98 39.7433ZM245.723 50.4577L247.075 51.1077L245.723 50.4577ZM245.755 78.6732L244.406 79.3293L245.755 78.6732ZM253.327 87.3767L252.538 88.6525L253.327 87.3767ZM273.813 87.9737L274.546 89.2826L274.549 89.2808L273.813 87.9737ZM280.411 81.2497L279.095 80.5301L279.093 80.5334L280.411 81.2497ZM282.799 70.9752L283.108 69.5074L281.299 69.1265V70.9752H282.799ZM285.187 71.4779V72.9779H299.593L285.496 70.0101L285.187 71.4779ZM265.832 71.4779H264.332V72.9779H265.832V71.4779ZM265.832 64.5654V63.0654H264.332V64.5654H265.832ZM290.34 64.5654H291.84V63.0654H290.34V64.5654ZM286.947 85.3029L285.648 84.5527L285.645 84.558L286.947 85.3029ZM277.646 94.4149L278.362 95.7333L278.364 95.732L277.646 94.4149ZM249.054 93.5979L248.259 94.8703L248.262 94.872L249.054 93.5979ZM238.999 82.1609L237.648 82.8133L237.651 82.818L238.999 82.1609ZM237.46 50.8347L236.039 50.3538L236.037 50.3582L237.46 50.8347ZM243.304 40.4031L244.432 41.3915L243.304 40.4031ZM252.227 33.8048L251.617 32.4344L252.227 33.8048ZM273.059 33.0507L272.563 34.4666L272.576 34.4707L273.059 33.0507ZM280.945 37.3553L280.002 38.5214L280.008 38.5261L280.014 38.5308L280.945 37.3553ZM286.758 43.985L285.473 44.7583L285.476 44.763L286.758 43.985ZM289.963 52.5V54H291.771L291.437 52.223L289.963 52.5ZM283.345 52.0341C282.615 49.7994 281.646 47.7758 280.429 45.9737L277.943 47.6521C278.988 49.2015 279.841 50.9693 280.494 52.9659L283.345 52.0341ZM280.441 45.9916C279.242 44.1595 277.799 42.5887 276.111 41.2885L274.28 43.6652C275.692 44.753 276.909 46.0728 277.931 47.6342L280.441 45.9916ZM276.119 41.2946C274.443 39.9865 272.546 38.9951 270.44 38.3157L269.519 41.1708C271.309 41.7483 272.889 42.5793 274.272 43.6591L276.119 41.2946ZM270.44 38.3157C268.325 37.6333 266.03 37.3007 263.57 37.3007V40.3007C265.76 40.3007 267.739 40.5965 269.519 41.1708L270.44 38.3157ZM263.57 37.3007C259.484 37.3007 255.738 38.3602 252.369 40.4856L253.97 43.0228C256.843 41.2101 260.031 40.3007 263.57 40.3007V37.3007ZM252.369 40.4856C248.975 42.6267 246.318 45.76 244.371 49.8076L247.075 51.1077C248.815 47.4887 251.122 44.8197 253.97 43.0228L252.369 40.4856ZM244.371 49.8076C242.405 53.8965 241.458 58.8354 241.458 64.5654H244.458C244.458 59.1517 245.355 54.6855 247.075 51.1077L244.371 49.8076ZM241.458 64.5654C241.458 70.2976 242.416 75.2388 244.406 79.3293L247.103 78.0172C245.364 74.4411 244.458 69.9771 244.458 64.5654H241.458ZM244.406 79.3293C246.376 83.3817 249.08 86.5141 252.538 88.6525L254.116 86.1009C251.206 84.3012 248.861 81.6314 247.103 78.0172L244.406 79.3293ZM252.538 88.6525C255.974 90.7774 259.832 91.8302 264.073 91.8302V88.8302C260.353 88.8302 257.048 87.914 254.116 86.1009L252.538 88.6525ZM264.073 91.8302C267.978 91.8302 271.484 90.9962 274.546 89.2826L273.08 86.6648C270.528 88.0932 267.541 88.8302 264.073 88.8302V91.8302ZM274.549 89.2808C277.626 87.5485 280.026 85.1008 281.729 81.966L279.093 80.5334C277.655 83.18 275.656 85.2149 273.077 86.6666L274.549 89.2808ZM281.727 81.9693C283.461 78.7992 284.299 75.1178 284.299 70.9752H281.299C281.299 74.7087 280.546 77.877 279.095 80.5301L281.727 81.9693ZM282.49 72.443L284.878 72.9458L285.496 70.0101L283.108 69.5074L282.49 72.443ZM285.187 69.9779H265.832V72.9779H285.187V69.9779ZM267.332 71.4779V64.5654H264.332V71.4779H267.332ZM265.832 66.0654H290.34V63.0654H265.832V66.0654ZM288.84 64.5654V71.4779H291.84V64.5654H288.84ZM288.84 71.4779C288.84 76.5597 287.757 80.9002 285.648 84.5528L288.246 86.0531C290.661 81.8715 291.84 76.9953 291.84 71.4779H288.84ZM285.645 84.558C283.541 88.2342 280.643 91.0733 276.929 93.0978L278.364 95.732C282.567 93.4414 285.87 90.2059 288.249 86.0479L285.645 84.558ZM276.931 93.0964C273.242 95.098 268.969 96.1198 264.073 96.1198V99.1198C269.398 99.1198 274.175 98.0049 278.362 95.7333L276.931 93.0964ZM264.073 96.1198C258.62 96.1198 253.895 94.84 249.845 92.3239L248.262 94.872C252.843 97.7183 258.13 99.1198 264.073 99.1198V96.1198ZM249.848 92.3256C245.813 89.8063 242.644 86.217 240.348 81.5038L237.651 82.818C240.172 87.9918 243.706 92.0272 248.259 94.8703L249.848 92.3256ZM240.35 81.5085C238.081 76.8107 236.917 71.1785 236.917 64.5654H233.917C233.917 71.526 235.142 77.6241 237.648 82.8133L240.35 81.5085ZM236.917 64.5654C236.917 59.6078 237.58 55.1956 238.882 51.3112L236.037 50.3582C234.616 54.6012 233.917 59.3429 233.917 64.5654H236.917ZM238.88 51.3156C240.208 47.3934 242.064 44.0948 244.432 41.3915L242.175 39.4148C239.516 42.4509 237.476 46.1067 236.039 50.3538L238.88 51.3156ZM244.432 41.3915C246.805 38.6826 249.603 36.6147 252.837 35.1752L251.617 32.4344C247.981 34.0532 244.83 36.3841 242.175 39.4148L244.432 41.3915ZM252.837 35.1752C256.062 33.7395 259.633 33.0111 263.57 33.0111V30.0111C259.254 30.0111 255.262 30.8118 251.617 32.4344L252.837 35.1752ZM263.57 33.0111C266.81 33.0111 269.804 33.5008 272.563 34.4665L273.554 31.6349C270.449 30.5479 267.117 30.0111 263.57 30.0111V33.0111ZM272.576 34.4707C275.371 35.4223 277.842 36.7739 280.002 38.5214L281.889 36.1892C279.44 34.2081 276.654 32.6901 273.542 31.6307L272.576 34.4707ZM280.014 38.5308C282.196 40.2608 284.014 42.3339 285.473 44.7583L288.044 43.2118C286.402 40.4832 284.345 38.1365 281.877 36.1799L280.014 38.5308ZM285.476 44.763C286.927 47.155 287.934 49.8219 288.489 52.777L291.437 52.223C290.82 48.9359 289.69 45.9262 288.041 43.2071L285.476 44.763ZM289.963 51H281.919V54H289.963V51ZM304.338 96.74V98.24H305.397L305.752 97.2418L304.338 96.74ZM296.169 96.74L294.761 96.223L294.02 98.24H296.169V96.74ZM319.797 32.3909V30.8909H318.75L318.389 31.8739L319.797 32.3909ZM327.84 32.3909L329.249 31.8739L328.888 30.8909H327.84V32.3909ZM351.469 96.74V98.24H353.617L352.877 96.223L351.469 96.74ZM343.299 96.74L341.886 97.2418L342.24 98.24H343.299V96.74ZM324.07 42.5711L325.484 42.0693L325.129 41.0711H324.07V42.5711ZM323.567 42.5711V41.0711H322.508L322.154 42.0693L323.567 42.5711ZM307.354 71.6036V70.1036H305.854V71.6036H307.354ZM340.283 71.6036H341.783V70.1036H340.283V71.6036ZM340.283 78.5161V80.0161H341.783V78.5161H340.283ZM307.354 78.5161H305.854V80.0161H307.354V78.5161ZM304.338 95.24H296.169V98.24H304.338V95.24ZM297.577 97.257L321.205 32.9079L318.389 31.8739L294.761 96.223L297.577 97.257ZM319.797 33.8909H327.84V30.8909H319.797V33.8909ZM326.432 32.9079L350.061 97.257L352.877 96.223L329.249 31.8739L326.432 32.9079ZM351.469 95.24H343.299V98.24H351.469V95.24ZM344.713 96.2382L325.484 42.0693L322.656 43.0729L341.886 97.2418L344.713 96.2382ZM324.07 41.0711H323.567V44.0711H324.07V41.0711ZM322.154 42.0693L302.924 96.2382L305.752 97.2418L324.981 43.0729L322.154 42.0693ZM307.354 73.1036H340.283V70.1036H307.354V73.1036ZM338.783 71.6036V78.5161H341.783V71.6036H338.783ZM340.283 77.0161H307.354V80.0161H340.283V77.0161ZM308.854 78.5161V71.6036H305.854V78.5161H308.854ZM412.519 32.3909H414.019V30.8909H412.519V32.3909ZM412.519 96.74V98.24H414.019V96.74H412.519ZM404.978 96.74L403.745 97.5952L404.193 98.24H404.978V96.74ZM369.912 46.2159L371.145 45.3606L370.697 44.7159H369.912V46.2159ZM369.284 46.2159V44.7159H367.784V46.2159H369.284ZM369.284 96.74V98.24H370.784V96.74H369.284ZM361.492 96.74H359.992V98.24H361.492V96.74ZM361.492 32.3909V30.8909H359.992V32.3909H361.492ZM369.033 32.3909L370.265 31.535L369.817 30.8909H369.033V32.3909ZM404.224 83.0407L402.992 83.8966L403.439 84.5407H404.224V83.0407ZM404.852 83.0407V84.5407H406.352V83.0407H404.852ZM404.852 32.3909V30.8909H403.352V32.3909H404.852ZM411.019 32.3909V96.74H414.019V32.3909H411.019ZM412.519 95.24H404.978V98.24H412.519V95.24ZM406.21 95.8847L371.145 45.3606L368.68 47.0711L403.745 97.5952L406.21 95.8847ZM369.912 44.7159H369.284V47.7159H369.912V44.7159ZM367.784 46.2159V96.74H370.784V46.2159H367.784ZM369.284 95.24H361.492V98.24H369.284V95.24ZM362.992 96.74V32.3909H359.992V96.74H362.992ZM361.492 33.8909H369.033V30.8909H361.492V33.8909ZM367.801 33.2468L402.992 83.8966L405.455 82.1848L370.265 31.535L367.801 33.2468ZM404.224 84.5407H404.852V81.5407H404.224V84.5407ZM406.352 83.0407V32.3909H403.352V83.0407H406.352ZM404.852 33.8909H412.519V30.8909H404.852V33.8909ZM472.1 52.5L470.674 52.9659L471.012 54H472.1V52.5ZM469.366 46.8129L468.111 47.6342L468.117 47.6432L468.123 47.6521L469.366 46.8129ZM465.376 42.4769L464.453 43.6592L464.46 43.6652L465.376 42.4769ZM460.16 39.7433L460.62 38.3157L460.16 39.7433ZM435.903 50.4577L437.255 51.1077L435.903 50.4577ZM435.935 78.6732L434.586 79.3293L435.935 78.6732ZM443.507 87.3767L442.718 88.6525L443.507 87.3767ZM463.993 87.9737L464.726 89.2826L464.729 89.2808L463.993 87.9737ZM470.591 81.2497L469.275 80.5301L469.274 80.5334L470.591 81.2497ZM472.979 70.9752L473.288 69.5074L471.479 69.1265V70.9752H472.979ZM475.367 71.4779V72.9779H489.774L475.676 70.0101L475.367 71.4779ZM456.012 71.4779H454.512V72.9779H456.012V71.4779ZM456.012 64.5654V63.0654H454.512V64.5654H456.012ZM480.52 64.5654H482.02V63.0654H480.52V64.5654ZM477.127 85.3029L475.828 84.5527L475.825 84.558L477.127 85.3029ZM467.826 94.4149L468.542 95.7333L468.544 95.732L467.826 94.4149ZM439.234 93.5979L438.439 94.8703L438.442 94.872L439.234 93.5979ZM429.179 82.1609L427.829 82.8133L427.831 82.818L429.179 82.1609ZM427.64 50.8347L426.219 50.3538L426.217 50.3582L427.64 50.8347ZM433.484 40.4031L434.612 41.3915L433.484 40.4031ZM442.407 33.8048L441.797 32.4344L442.407 33.8048ZM463.239 33.0507L462.744 34.4666L462.756 34.4707L463.239 33.0507ZM471.126 37.3553L470.182 38.5214L470.188 38.5261L470.194 38.5308L471.126 37.3553ZM476.938 43.985L475.653 44.7583L475.656 44.763L476.938 43.985ZM480.143 52.5V54H481.951L481.617 52.223L480.143 52.5ZM473.525 52.0341C472.795 49.7994 471.826 47.7758 470.609 45.9737L468.123 47.6521C469.169 49.2015 470.022 50.9693 470.674 52.9659L473.525 52.0341ZM470.621 45.9916C469.423 44.1595 467.979 42.5887 466.291 41.2885L464.46 43.6652C465.873 44.753 467.089 46.0728 468.111 47.6342L470.621 45.9916ZM466.299 41.2946C464.624 39.9865 462.727 38.9951 460.62 38.3157L459.699 41.1708C461.489 41.7483 463.07 42.5793 464.453 43.6591L466.299 41.2946ZM460.62 38.3157C458.505 37.6333 456.211 37.3007 453.75 37.3007V40.3007C455.94 40.3007 457.919 40.5965 459.699 41.1708L460.62 38.3157ZM453.75 37.3007C449.664 37.3007 445.918 38.3602 442.55 40.4856L444.15 43.0228C447.024 41.2101 450.211 40.3007 453.75 40.3007V37.3007ZM442.55 40.4856C439.156 42.6267 436.498 45.76 434.551 49.8076L437.255 51.1077C438.995 47.4887 441.302 44.8197 444.15 43.0228L442.55 40.4856ZM434.551 49.8076C432.585 53.8965 431.638 58.8354 431.638 64.5654H434.638C434.638 59.1517 435.535 54.6855 437.255 51.1077L434.551 49.8076ZM431.638 64.5654C431.638 70.2976 432.596 75.2388 434.586 79.3293L437.284 78.0172C435.544 74.4411 434.638 69.9771 434.638 64.5654H431.638ZM434.586 79.3293C436.557 83.3817 439.26 86.5141 442.718 88.6525L444.296 86.1009C441.386 84.3012 439.041 81.6314 437.284 78.0172L434.586 79.3293ZM442.718 88.6525C446.154 90.7774 450.013 91.8302 454.253 91.8302V88.8302C450.533 88.8302 447.228 87.914 444.296 86.1009L442.718 88.6525ZM454.253 91.8302C458.158 91.8302 461.664 90.9962 464.726 89.2826L463.261 86.6648C460.708 88.0932 457.721 88.8302 454.253 88.8302V91.8302ZM464.729 89.2808C467.806 87.5485 470.206 85.1008 471.909 81.966L469.274 80.5334C467.835 83.18 465.836 85.2149 463.257 86.6666L464.729 89.2808ZM471.908 81.9693C473.641 78.7992 474.479 75.1178 474.479 70.9752H471.479C471.479 74.7087 470.726 77.877 469.275 80.5301L471.908 81.9693ZM472.67 72.443L475.058 72.9458L475.676 70.0101L473.288 69.5074L472.67 72.443ZM475.367 69.9779H456.012V72.9779H475.367V69.9779ZM457.512 71.4779V64.5654H454.512V71.4779H457.512ZM456.012 66.0654H480.52V63.0654H456.012V66.0654ZM479.02 64.5654V71.4779H482.02V64.5654H479.02ZM479.02 71.4779C479.02 76.5597 477.938 80.9002 475.828 84.5528L478.426 86.0531C480.841 81.8715 482.02 76.9953 482.02 71.4779H479.02ZM475.825 84.558C473.722 88.2342 470.823 91.0733 467.109 93.0978L468.544 95.732C472.747 93.4414 476.05 90.2059 478.429 86.0479L475.825 84.558ZM467.111 93.0964C463.422 95.098 459.15 96.1198 454.253 96.1198V99.1198C459.578 99.1198 464.355 98.0049 468.542 95.7333L467.111 93.0964ZM454.253 96.1198C448.8 96.1198 444.075 94.84 440.026 92.3239L438.442 94.872C443.023 97.7183 448.31 99.1198 454.253 99.1198V96.1198ZM440.028 92.3256C435.993 89.8063 432.824 86.217 430.528 81.5038L427.831 82.818C430.352 87.9918 433.886 92.0272 438.439 94.8703L440.028 92.3256ZM430.53 81.5085C428.261 76.8107 427.097 71.1785 427.097 64.5654H424.097C424.097 71.526 425.322 77.6241 427.829 82.8133L430.53 81.5085ZM427.097 64.5654C427.097 59.6078 427.761 55.1956 429.062 51.3112L426.217 50.3582C424.796 54.6012 424.097 59.3429 424.097 64.5654H427.097ZM429.061 51.3156C430.388 47.3934 432.244 44.0948 434.612 41.3915L432.356 39.4148C429.696 42.4509 427.656 46.1067 426.219 50.3538L429.061 51.3156ZM434.612 41.3915C436.985 38.6826 439.783 36.6147 443.017 35.1752L441.797 32.4344C438.161 34.0532 435.01 36.3841 432.356 39.4148L434.612 41.3915ZM443.017 35.1752C446.243 33.7395 449.813 33.0111 453.75 33.0111V30.0111C449.434 30.0111 445.443 30.8118 441.797 32.4344L443.017 35.1752ZM453.75 33.0111C456.99 33.0111 459.984 33.5008 462.744 34.4665L463.735 31.6349C460.629 30.5479 457.297 30.0111 453.75 30.0111V33.0111ZM462.756 34.4707C465.551 35.4223 468.022 36.7739 470.182 38.5214L472.069 36.1892C469.621 34.2081 466.834 32.6901 463.723 31.6307L462.756 34.4707ZM470.194 38.5308C472.376 40.2608 474.195 42.3339 475.653 44.7583L478.224 43.2118C476.582 40.4832 474.526 38.1365 472.057 36.1799L470.194 38.5308ZM475.656 44.763C477.107 47.155 478.114 49.8219 478.669 52.777L481.617 52.223C481 48.9359 479.87 45.9262 478.221 43.2071L475.656 44.763ZM480.143 51H472.1V54H480.143V51ZM487.669 39.3034H486.169V40.8034H487.669V39.3034ZM487.669 32.3909V30.8909H486.169V32.3909H487.669ZM535.93 32.3909H537.43V30.8909H535.93V32.3909ZM535.93 39.3034V40.8034H537.43V39.3034H535.93ZM515.696 39.3034V37.8034H514.196V39.3034H515.696ZM515.696 96.74V98.24H517.196V96.74H515.696ZM507.903 96.74H506.403V98.24H507.903V96.74ZM507.903 39.3034H509.403V37.8034H507.903V39.3034ZM489.169 39.3034V32.3909H486.169V39.3034H489.169ZM487.669 33.8909H535.93V30.8909H487.669V33.8909ZM534.43 32.3909V39.3034H537.43V32.3909H534.43ZM535.93 37.8034H515.696V40.8034H535.93V37.8034ZM514.196 39.3034V96.74H517.196V39.3034H514.196ZM515.696 95.24H507.903V98.24H515.696V95.24ZM509.403 96.74V39.3034H506.403V96.74H509.403ZM507.903 37.8034H487.669V40.8034H507.903V37.8034ZM550.596 32.3909L552.01 31.892L551.657 30.8909H550.596V32.3909ZM569.699 86.5598L568.285 87.0586L568.638 88.0598H569.699V86.5598ZM570.454 86.5598V88.0598H571.515L571.868 87.0586L570.454 86.5598ZM589.557 32.3909V30.8909H588.496L588.143 31.892L589.557 32.3909ZM597.727 32.3909L599.135 32.9079L599.875 30.8909H597.727V32.3909ZM574.098 96.74V98.24H575.146L575.506 97.257L574.098 96.74ZM566.055 96.74L564.647 97.257L565.008 98.24H566.055V96.74ZM542.427 32.3909V30.8909H540.278L541.018 32.9079L542.427 32.3909ZM549.181 32.8898L568.285 87.0586L571.114 86.0609L552.01 31.892L549.181 32.8898ZM569.699 88.0598H570.454V85.0598H569.699V88.0598ZM571.868 87.0586L590.972 32.8898L588.143 31.892L569.039 86.0609L571.868 87.0586ZM589.557 33.8909H597.727V30.8909H589.557V33.8909ZM596.318 31.8739L572.69 96.223L575.506 97.257L599.135 32.9079L596.318 31.8739ZM574.098 95.24H566.055V98.24H574.098V95.24ZM567.463 96.223L543.835 31.8739L541.018 32.9079L564.647 97.257L567.463 96.223ZM542.427 33.8909H550.596V30.8909H542.427V33.8909Z" fill="black"/>
</g>
<path id="Vector_3" d="M543.12 143.96H28.74C13.02 143.96 0.23999 131.67 0.23999 116.57V27.74C0.23999 12.64 13.03 0.349976 28.74 0.349976H543.12C558.84 0.349976 571.62 12.64 571.62 27.74V116.57C571.62 131.67 558.83 143.96 543.12 143.96ZM28.74 10.42C18.8 10.42 10.71 18.19 10.71 27.75V116.58C10.71 126.13 18.8 133.91 28.74 133.91H543.12C553.06 133.91 561.15 126.14 561.15 116.58V27.75C561.15 18.2 553.06 10.42 543.12 10.42H28.74Z" fill="#4B9AF9" stroke="black" stroke-width="3" stroke-miterlimit="10"/>
</g>
</svg>
